<svg id="Layer_1" data-name="Layer 1" xmlns="http://www.w3.org/2000/svg" viewBox="0 0 1200 568"><defs><style>.cls-1{fill:#4dba71;}.cls-2{fill:#212d3e;}</style></defs><title>Logo</title><path class="cls-1" d="M827.73,150.24Q716.82,76.48,606.2,2.29C601.85-.62,598.34-.88,594,2.21c-9.33,6.61-18.92,12.86-28.44,19.21Q469.39,85.55,373.17,149.58c-4.79,3.18-7,6.8-6.57,12.62,1,13.51,1.41,27.06,2.47,40.56C374.7,274.28,393.72,341.8,430,404c39.33,67.53,92.52,121.15,160.51,160.09,8.39,4.81,14.45,3,21.55-1.12a427.54,427.54,0,0,0,97.29-77.16c53.52-57,89.19-123.49,108.16-199.21,9.41-37.55,14.21-75.65,15.38-116.45C832.1,164.79,836.91,156.34,827.73,150.24Zm-75.07,49c-3.64,61.37-18.6,116.35-48,167.17-24.3,42-57.48,75.66-96.64,103.81-5.17,3.72-9.38,4-15.06.11C529.49,427.46,487.6,368.8,464.42,296.17c-9.59-30-14.22-60.93-17.24-92.17-.48-5,1.16-7.93,5.26-10.65q71-47.13,141.74-94.6c4.12-2.76,7.09-3.1,11.49-.15,46.91,31.58,94,62.87,141,94.4C749.6,195,751.71,198.25,752.67,199.27Z"/><path class="cls-2" d="M1,393.23V175.72H57.54L162,308.7v-133h56.25v217.5H162l-104.42-133v133Z"/><path class="cls-2" d="M236.67,284.47a112.12,112.12,0,0,1,71.68-106q22.08-8.79,48.61-8.79a130.64,130.64,0,0,1,48.47,8.79,114.54,114.54,0,0,1,38.22,24.38,111.48,111.48,0,0,1,25,36.49,118.4,118.4,0,0,1,0,90.29,111.48,111.48,0,0,1-25,36.49,114.54,114.54,0,0,1-38.22,24.38A130.64,130.64,0,0,1,357,399.28q-26.53,0-48.61-8.79a112.52,112.52,0,0,1-71.68-106Zm59.14,0a57.91,57.91,0,0,0,4.91,23.95A59.94,59.94,0,0,0,333.45,340a64,64,0,0,0,47,0,61.54,61.54,0,0,0,19.61-12.55,59.36,59.36,0,0,0,13.42-19,60.88,60.88,0,0,0,0-47.89,59.49,59.49,0,0,0-13.42-19,62.32,62.32,0,0,0-43.12-17,62.38,62.38,0,0,0-23.51,4.47,59.94,59.94,0,0,0-32.74,31.59A57.91,57.91,0,0,0,295.81,284.47Z"/><path class="cls-2" d="M480.14,393.23l36.93-217.5h56l43.56,116,43.27-116h56l36.92,217.5H696.49L677.75,268l-51.35,125.2h-22.5L555.14,268l-18.76,125.2Z"/><path class="cls-2" d="M921.79,355.44H841l-13,37.78h-60.3l82.8-217.5h61.73l82.79,217.5H934.77Zm-15-43L881.4,240,856,312.46Z"/><path class="cls-2" d="M1008.32,175.72H1092a98.69,98.69,0,0,1,41.69,8.94,113.8,113.8,0,0,1,34,23.79,110.32,110.32,0,0,1,22.94,34.61,106.75,106.75,0,0,1,.15,82.51A110.14,110.14,0,0,1,1168,360.35a112,112,0,0,1-34,23.93,99.35,99.35,0,0,1-42,8.94h-83.66Zm56.54,169.62h13a70,70,0,0,0,26.25-4.62A55.69,55.69,0,0,0,1123.56,328a54.25,54.25,0,0,0,12.13-19.18,68.81,68.81,0,0,0,4.18-24.38,66.86,66.86,0,0,0-4.33-24.23,54.26,54.26,0,0,0-31.73-32,69.47,69.47,0,0,0-26-4.61h-13Z"/></svg>